<svg xmlns="http://www.w3.org/2000/svg" viewBox="0 0 32 32" fill="#F97316">
  <!-- Body -->
  <ellipse cx="16" cy="18" rx="9" ry="7" />
  <!-- Left claw -->
  <path d="M4 13c-1.3-2-1.3-4 .7-5.3s4 0 4.6 2L6 12c-.4-.7-1.3-.9-2-.6s-.4 1.3 0 2H4z" />
  <!-- Right claw -->
  <path d="M28 13c1.3-2 1.3-4-.7-5.3s-4 0-4.6 2l3.3 2.3c.4-.7 1.3-.9 2-.6s.4 1.3 0 2h.7z" />
  <!-- Eyes -->
  <circle cx="13" cy="15" r="1.5" fill="white" />
  <circle cx="19" cy="15" r="1.5" fill="white" />
  <circle cx="13" cy="15" r="0.7" fill="black" />
  <circle cx="19" cy="15" r="0.7" fill="black" />
  <!-- Legs left -->
  <line x1="8" y1="20" x2="3" y2="24" stroke="#F97316" stroke-width="2" stroke-linecap="round" />
  <line x1="8" y1="22" x2="4" y2="27" stroke="#F97316" stroke-width="2" stroke-linecap="round" />
  <!-- Legs right -->
  <line x1="24" y1="20" x2="29" y2="24" stroke="#F97316" stroke-width="2" stroke-linecap="round" />
  <line x1="24" y1="22" x2="28" y2="27" stroke="#F97316" stroke-width="2" stroke-linecap="round" />
</svg>
